<svg width="64" height="64" viewBox="0 0 64 64" fill="none" xmlns="http://www.w3.org/2000/svg">
<path d="M32 8C38.3652 8 44.4698 10.5284 48.9707 15.0293C53.4716 19.5302 56 25.6348 56 32C56 38.3652 53.4716 44.4698 48.9707 48.9707C44.4698 53.4716 38.3652 56 32 56C25.6348 56 19.5302 53.4716 15.0293 48.9707C10.5284 44.4698 8 38.3652 8 32C8 25.6348 10.5284 19.5302 15.0293 15.0293C19.5302 10.5284 25.6348 8 32 8ZM31.9219 14.9492C30.7138 14.9492 29.7344 15.9286 29.7344 17.1367V31.1182C29.7344 32.2318 30.1686 33.279 30.9561 34.0664L36.6953 39.8057C37.1227 40.2325 37.6823 40.4462 38.2422 40.4463C38.8022 40.4463 39.3622 40.2325 39.7891 39.8057C40.6433 38.9514 40.6432 37.5663 39.7891 36.7119L34.1094 31.0322V17.1367C34.1094 15.9286 33.13 14.9492 31.9219 14.9492Z" fill="url(#paint0_linear_21149_6431)"/>
<defs>
<linearGradient id="paint0_linear_21149_6431" x1="13.1721" y1="14.6186" x2="44.8709" y2="39.0154" gradientUnits="userSpaceOnUse">
<stop stop-color="#80B5FF"/>
<stop offset="1" stop-color="#4CA3FF"/>
</linearGradient>
</defs>
</svg>
